<?xml version="1.0" encoding="UTF-8" standalone="no"?>
<svg
   xmlns:ooo="http://xml.openoffice.org/svg/export"
   xmlns:dc="http://purl.org/dc/elements/1.1/"
   xmlns:cc="http://creativecommons.org/ns#"
   xmlns:rdf="http://www.w3.org/1999/02/22-rdf-syntax-ns#"
   xmlns:svg="http://www.w3.org/2000/svg"
   xmlns="http://www.w3.org/2000/svg"
   xmlns:sodipodi="http://sodipodi.sourceforge.net/DTD/sodipodi-0.dtd"
   xmlns:inkscape="http://www.inkscape.org/namespaces/inkscape"
   version="1.2"
   width="88.19mm"
   height="88.19mm"
   viewBox="0 0 8819 8819"
   preserveAspectRatio="xMidYMid"
   fill-rule="evenodd"
   stroke-width="28.222"
   stroke-linejoin="round"
   xml:space="preserve"
   id="svg145"
   sodipodi:docname="Zaptomin.svg"
   inkscape:version="0.92.3 (2405546, 2018-03-11)"><metadata
   id="metadata149"><rdf:RDF><cc:Work
       rdf:about=""><dc:format>image/svg+xml</dc:format><dc:type
         rdf:resource="http://purl.org/dc/dcmitype/StillImage" /></cc:Work></rdf:RDF></metadata><sodipodi:namedview
   pagecolor="#ffffff"
   bordercolor="#666666"
   borderopacity="1"
   objecttolerance="10"
   gridtolerance="10"
   guidetolerance="10"
   inkscape:pageopacity="0"
   inkscape:pageshadow="2"
   inkscape:window-width="1600"
   inkscape:window-height="832"
   id="namedview147"
   showgrid="false"
   inkscape:zoom="1.4160713"
   inkscape:cx="131.11101"
   inkscape:cy="121.60327"
   inkscape:window-x="0"
   inkscape:window-y="0"
   inkscape:window-maximized="1"
   inkscape:current-layer="g137" />
 <defs
   class="ClipPathGroup"
   id="defs8">
  <clipPath
   id="presentation_clip_path"
   clipPathUnits="userSpaceOnUse">
   <rect
   x="0"
   y="0"
   width="8819"
   height="8819"
   id="rect2" />
  </clipPath>
  <clipPath
   id="presentation_clip_path_shrink"
   clipPathUnits="userSpaceOnUse">
   <rect
   x="8"
   y="8"
   width="8802"
   height="8802"
   id="rect5" />
  </clipPath>
 
   
  
    
   
     
    
       
      </defs>
 <defs
   class="TextShapeIndex"
   id="defs12">
  <g
   ooo:slide="id1"
   ooo:id-list="id3 id4 id5 id6 id7 id8 id9 id10 id11 id12 id13 id14"
   id="g10" />
 </defs>
 <defs
   class="EmbeddedBulletChars"
   id="defs44">
  <g
   id="bullet-char-template-57356"
   transform="scale(0.00048828125,-0.00048828125)">
   <path
   d="M 580,1141 L 1163,571 580,0 -4,571 580,1141 Z"
   id="path14" />
  </g>
  <g
   id="bullet-char-template-57354"
   transform="scale(0.00048828125,-0.00048828125)">
   <path
   d="M 8,1128 L 1137,1128 1137,0 8,0 8,1128 Z"
   id="path17" />
  </g>
  <g
   id="bullet-char-template-10146"
   transform="scale(0.00048828125,-0.00048828125)">
   <path
   d="M 174,0 L 602,739 174,1481 1456,739 174,0 Z M 1358,739 L 309,1346 659,739 1358,739 Z"
   id="path20" />
  </g>
  <g
   id="bullet-char-template-10132"
   transform="scale(0.00048828125,-0.00048828125)">
   <path
   d="M 2015,739 L 1276,0 717,0 1260,543 174,543 174,936 1260,936 717,1481 1274,1481 2015,739 Z"
   id="path23" />
  </g>
  <g
   id="bullet-char-template-10007"
   transform="scale(0.00048828125,-0.00048828125)">
   <path
   d="M 0,-2 C -7,14 -16,27 -25,37 L 356,567 C 262,823 215,952 215,954 215,979 228,992 255,992 264,992 276,990 289,987 310,991 331,999 354,1012 L 381,999 492,748 772,1049 836,1024 860,1049 C 881,1039 901,1025 922,1006 886,937 835,863 770,784 769,783 710,716 594,584 L 774,223 C 774,196 753,168 711,139 L 727,119 C 717,90 699,76 672,76 641,76 570,178 457,381 L 164,-76 C 142,-110 111,-127 72,-127 30,-127 9,-110 8,-76 1,-67 -2,-52 -2,-32 -2,-23 -1,-13 0,-2 Z"
   id="path26" />
  </g>
  <g
   id="bullet-char-template-10004"
   transform="scale(0.00048828125,-0.00048828125)">
   <path
   d="M 285,-33 C 182,-33 111,30 74,156 52,228 41,333 41,471 41,549 55,616 82,672 116,743 169,778 240,778 293,778 328,747 346,684 L 369,508 C 377,444 397,411 428,410 L 1163,1116 C 1174,1127 1196,1133 1229,1133 1271,1133 1292,1118 1292,1087 L 1292,965 C 1292,929 1282,901 1262,881 L 442,47 C 390,-6 338,-33 285,-33 Z"
   id="path29" />
  </g>
  <g
   id="bullet-char-template-9679"
   transform="scale(0.00048828125,-0.00048828125)">
   <path
   d="M 813,0 C 632,0 489,54 383,161 276,268 223,411 223,592 223,773 276,916 383,1023 489,1130 632,1184 813,1184 992,1184 1136,1130 1245,1023 1353,916 1407,772 1407,592 1407,412 1353,268 1245,161 1136,54 992,0 813,0 Z"
   id="path32" />
  </g>
  <g
   id="bullet-char-template-8226"
   transform="scale(0.00048828125,-0.00048828125)">
   <path
   d="M 346,457 C 273,457 209,483 155,535 101,586 74,649 74,723 74,796 101,859 155,911 209,963 273,989 346,989 419,989 480,963 531,910 582,859 608,796 608,723 608,648 583,586 532,535 482,483 420,457 346,457 Z"
   id="path35" />
  </g>
  <g
   id="bullet-char-template-8211"
   transform="scale(0.00048828125,-0.00048828125)">
   <path
   d="M -4,459 L 1135,459 1135,606 -4,606 -4,459 Z"
   id="path38" />
  </g>
  <g
   id="bullet-char-template-61548"
   transform="scale(0.00048828125,-0.00048828125)">
   <path
   d="M 173,740 C 173,903 231,1043 346,1159 462,1274 601,1332 765,1332 928,1332 1067,1274 1183,1159 1299,1043 1357,903 1357,740 1357,577 1299,437 1183,322 1067,206 928,148 765,148 601,148 462,206 346,322 231,437 173,577 173,740 Z"
   id="path41" />
  </g>
 </defs>
 <defs
   class="TextEmbeddedBitmaps"
   id="defs46" />
 <g
   id="g51">
  <g
   id="id2"
   class="Master_Slide">
   <g
   id="bg-id2"
   class="Background" />
   <g
   id="bo-id2"
   class="BackgroundObjects" />
  </g>
 </g>
 <g
   class="SlideGroup"
   id="g143">
  <g
   id="g137"
   class="Page">
      <g
   id="id3">
        <rect
   class="BoundingBox"
   x="0"
   y="0"
   width="8821"
   height="8821"
   id="rect53"
   style="fill:none;stroke:none" />
        <path
   d="m 8820,4410 c 0,812 -184,1502 -590,2205 -406,703 -912,1209 -1615,1615 -703,406 -1393,590 -2205,590 -812,0 -1502,-184 -2205,-590 C 1502,7824 997,7318 591,6615 185,5912 0,5222 0,4410 0,3598 185,2908 591,2205 997,1502 1502,997 2205,591 2908,185 3598,0 4410,0 c 812,0 1502,185 2205,591 703,406 1209,911 1615,1614 406,703 590,1393 590,2205 z"
   id="path55"
   inkscape:connector-curvature="0"
   style="fill:#ebebeb;stroke:none" />
       </g>
      <g
   id="g65"
   class="com.sun.star.drawing.ClosedBezierShape">
       <g
   id="id4">
        <rect
   style="fill:none;stroke:none"
   id="rect60"
   height="884"
   width="884"
   y="4851"
   x="5292"
   class="BoundingBox" />
        <path
   style="fill:#0093ee;stroke:none"
   inkscape:connector-curvature="0"
   id="path62"
   d="m 6175,5292 c 0,82 -19,151 -59,221 -41,71 -91,121 -162,162 -70,40 -139,59 -221,59 -81,0 -150,-19 -220,-59 -71,-41 -121,-91 -162,-162 -40,-70 -59,-139 -59,-221 0,-81 19,-150 59,-220 41,-71 91,-121 162,-162 70,-40 139,-59 220,-59 82,0 151,19 221,59 71,41 121,91 162,162 40,70 59,139 59,220 z" />
       </g>
      </g>
      <g
   id="g72"
   class="com.sun.star.drawing.PolyPolygonShape">
       <g
   id="id5">
        <rect
   style="fill:none;stroke:none"
   id="rect67"
   height="885"
   width="4242"
   y="6133"
   x="2275"
   class="BoundingBox" />
        <path
   style="fill:#4abaff;stroke:none"
   inkscape:connector-curvature="0"
   id="path69"
   d="M 4395,7016 H 2275 v -883 h 4241 v 883 z" />
       </g>
      </g>
      <g
   id="g79"
   class="com.sun.star.drawing.ClosedBezierShape">
       <g
   id="id6">
        <rect
   style="fill:none;stroke:none"
   id="rect74"
   height="885"
   width="884"
   y="6133"
   x="6074"
   class="BoundingBox" />
        <path
   style="fill:#4abaff;stroke:none"
   inkscape:connector-curvature="0"
   id="path76"
   d="m 6957,6574 c 0,82 -19,151 -59,221 -41,71 -91,121 -162,162 -70,40 -139,59 -221,59 -81,0 -150,-19 -220,-59 -71,-41 -121,-91 -162,-162 -40,-70 -59,-139 -59,-221 0,-81 19,-150 59,-220 41,-71 91,-121 162,-162 70,-40 139,-59 220,-59 82,0 151,19 221,59 71,41 121,91 162,162 40,70 59,139 59,220 z" />
       </g>
      </g>
      <g
   id="g86"
   class="com.sun.star.drawing.ClosedBezierShape">
       <g
   id="id7">
        <rect
   style="fill:none;stroke:none"
   id="rect81"
   height="884"
   width="885"
   y="3351"
   x="2205"
   class="BoundingBox" />
        <path
   style="fill:#0093ee;stroke:none"
   inkscape:connector-curvature="0"
   id="path83"
   d="m 3088,3792 c 0,82 -19,151 -59,221 -41,71 -91,121 -162,162 -70,40 -139,59 -221,59 -81,0 -150,-19 -220,-59 -71,-41 -121,-91 -162,-162 -40,-70 -59,-139 -59,-221 0,-81 19,-150 59,-220 41,-71 91,-121 162,-162 70,-40 139,-59 220,-59 82,0 151,19 221,59 71,41 121,91 162,162 40,70 59,139 59,220 z" />
       </g>
      </g>
      <g
   id="g93"
   class="com.sun.star.drawing.ClosedBezierShape">
       <g
   id="id8">
        <rect
   style="fill:none;stroke:none"
   id="rect88"
   height="884"
   width="884"
   y="2910"
   x="838"
   class="BoundingBox" />
        <path
   style="fill:#0093ee;stroke:none"
   inkscape:connector-curvature="0"
   id="path90"
   d="m 1721,3351 c 0,82 -19,151 -59,221 -41,71 -91,121 -162,162 -70,40 -139,59 -221,59 -81,0 -150,-19 -220,-59 -71,-41 -121,-91 -162,-162 -40,-70 -59,-139 -59,-221 0,-81 19,-150 59,-220 41,-71 91,-121 162,-162 70,-40 139,-59 220,-59 82,0 151,19 221,59 71,41 121,91 162,162 40,70 59,139 59,220 z" />
       </g>
      </g>
      <g
   id="g100"
   class="com.sun.star.drawing.PolyPolygonShape">
       <g
   id="id9">
        <rect
   style="fill:none;stroke:none"
   id="rect95"
   height="5035"
   width="5035"
   y="1892"
   x="1893"
   class="BoundingBox" />
        <path
   style="fill:#0093ee;stroke:none"
   inkscape:connector-curvature="0"
   id="path97"
   d="M 2205,6614 1893,6302 6303,1892 6927,2516 2517,6926 Z" />
       </g>
      </g>
      <g
   id="g107"
   class="com.sun.star.drawing.ClosedBezierShape"
   transform="translate(2.6512322)">
       <g
   id="id10">
        <rect
   style="fill:none;stroke:none"
   id="rect102"
   height="885"
   width="885"
   y="1749"
   x="6185"
   class="BoundingBox" />
        <path
   style="fill:#0093ee;stroke:none"
   inkscape:connector-curvature="0"
   id="path104"
   d="m 7068,2190 c 0,82 -19,151 -59,221 -41,71 -91,121 -162,162 -70,40 -139,59 -221,59 -81,0 -150,-19 -220,-59 -71,-41 -121,-91 -162,-162 -40,-70 -59,-139 -59,-221 0,-81 19,-150 59,-220 41,-71 91,-121 162,-162 70,-40 139,-59 220,-59 82,0 151,19 221,59 71,41 121,91 162,162 40,70 59,139 59,220 z" />
       </g>
      </g>
      <g
   id="g114"
   class="com.sun.star.drawing.ClosedBezierShape"
   transform="translate(-15.874999,13.229166)">
       <g
   id="id11"
   transform="translate(-5.304293,5.299126)">
        <rect
   style="fill:none;stroke:none"
   id="rect109"
   height="885"
   width="885"
   y="6133"
   x="1805"
   class="BoundingBox" />
        <path
   style="fill:#0093ee;stroke:none"
   inkscape:connector-curvature="0"
   id="path111"
   d="m 2688,6574 c 0,82 -19,151 -59,221 -41,71 -91,121 -162,162 -70,40 -139,59 -221,59 -81,0 -150,-19 -220,-59 -71,-41 -121,-91 -162,-162 -40,-70 -59,-139 -59,-221 0,-81 19,-150 59,-220 41,-71 91,-121 162,-162 70,-40 139,-59 220,-59 82,0 151,19 221,59 71,41 121,91 162,162 40,70 59,139 59,220 z" />
       </g>
      </g>
      <g
   id="g121"
   class="com.sun.star.drawing.PolyPolygonShape">
       <g
   id="id12">
        <rect
   style="fill:none;stroke:none"
   id="rect116"
   height="885"
   width="2961"
   y="1657"
   x="1904"
   class="BoundingBox" />
        <path
   style="fill:#4abaff;stroke:none"
   inkscape:connector-curvature="0"
   id="path118"
   d="M 3384,2540 H 1905 v -883 h 2959 v 883 z" />
       </g>
      </g>
      <g
   id="g128"
   class="com.sun.star.drawing.ClosedBezierShape"
   transform="translate(0.00594315)">
       <g
   id="id13">
        <rect
   style="fill:none;stroke:none"
   id="rect123"
   height="884"
   width="884"
   y="1657"
   x="1403"
   class="BoundingBox" />
        <path
   style="fill:#5f64ff;stroke:none"
   inkscape:connector-curvature="0"
   id="path125"
   d="m 2286,2098 c 0,82 -19,151 -59,221 -41,71 -91,121 -162,162 -70,40 -139,59 -221,59 -81,0 -150,-19 -220,-59 -71,-41 -121,-91 -162,-162 -40,-70 -59,-139 -59,-221 0,-81 19,-150 59,-220 41,-71 91,-121 162,-162 70,-40 139,-59 220,-59 82,0 151,19 221,59 71,41 121,91 162,162 40,70 59,139 59,220 z" />
       </g>
      </g>
      <g
   id="g135"
   class="com.sun.star.drawing.ClosedBezierShape"
   transform="translate(0,5.2788158)">
       <g
   id="id14">
        <rect
   style="fill:none;stroke:none"
   id="rect130"
   height="884"
   width="885"
   y="1651"
   x="4445"
   class="BoundingBox" />
        <path
   style="fill:#4abaff;stroke:none"
   inkscape:connector-curvature="0"
   id="path132"
   d="m 5328,2092 c 0,82 -19,151 -59,221 -41,71 -91,121 -162,162 -70,40 -139,59 -221,59 -81,0 -150,-19 -220,-59 -71,-41 -121,-91 -162,-162 -40,-70 -59,-139 -59,-221 0,-81 19,-150 59,-220 41,-71 91,-121 162,-162 70,-40 139,-59 220,-59 82,0 151,19 221,59 71,41 121,91 162,162 40,70 59,139 59,220 z" />
       </g>
      </g>
     </g>
 </g>
</svg>